<svg width="173" height="50" viewBox="0 0 173 50" fill="none" xmlns="http://www.w3.org/2000/svg">
<path d="M59.5234 35.1641C59.5234 36.5 59.207 37.6309 58.5742 38.5566C57.9531 39.4707 57.0215 40.168 55.7793 40.6484C54.5371 41.1172 52.9902 41.3516 51.1387 41.3516C49.7676 41.3516 48.5898 41.2637 47.6055 41.0879C46.6328 40.9121 45.6484 40.6191 44.6523 40.209V35.7793C45.7188 36.2598 46.8613 36.6582 48.0801 36.9746C49.3105 37.2793 50.3887 37.4316 51.3145 37.4316C52.3574 37.4316 53.1016 37.2793 53.5469 36.9746C54.0039 36.6582 54.2324 36.248 54.2324 35.7441C54.2324 35.416 54.1387 35.123 53.9512 34.8652C53.7754 34.5957 53.3887 34.2969 52.791 33.9688C52.1934 33.6289 51.2559 33.1895 49.9785 32.6504C48.748 32.1348 47.7344 31.6133 46.9375 31.0859C46.1523 30.5586 45.5664 29.9375 45.1797 29.2227C44.8047 28.4961 44.6172 27.5762 44.6172 26.4629C44.6172 24.6465 45.3203 23.2812 46.7266 22.3672C48.1445 21.4414 50.0371 20.9785 52.4043 20.9785C53.623 20.9785 54.7832 21.1016 55.8848 21.3477C56.998 21.5938 58.1406 21.9863 59.3125 22.5254L57.6953 26.3926C56.7227 25.9707 55.8027 25.625 54.9355 25.3555C54.0801 25.0859 53.207 24.9512 52.3164 24.9512C51.5312 24.9512 50.9395 25.0566 50.541 25.2676C50.1426 25.4785 49.9434 25.8008 49.9434 26.2344C49.9434 26.5508 50.043 26.832 50.2422 27.0781C50.4531 27.3242 50.8516 27.5996 51.4375 27.9043C52.0352 28.1973 52.9082 28.5781 54.0566 29.0469C55.1699 29.5039 56.1367 29.9844 56.957 30.4883C57.7773 30.9805 58.4102 31.5957 58.8555 32.334C59.3008 33.0605 59.5234 34.0039 59.5234 35.1641ZM69.0684 13.6484V19.2207C69.0684 20.1934 69.0332 21.1191 68.9629 21.998C68.9043 22.877 68.8574 23.498 68.8223 23.8613H69.1035C69.5254 23.1816 70.0234 22.6309 70.5977 22.209C71.1836 21.7871 71.8281 21.4766 72.5312 21.2773C73.2344 21.0781 73.9902 20.9785 74.7988 20.9785C76.2168 20.9785 77.4531 21.2305 78.5078 21.7344C79.5625 22.2266 80.3828 23.0059 80.9688 24.0723C81.5547 25.127 81.8477 26.498 81.8477 28.1855V41H76.4863V29.5215C76.4863 28.1152 76.2285 27.0547 75.7129 26.3398C75.1973 25.625 74.4004 25.2676 73.3223 25.2676C72.2441 25.2676 71.3945 25.5195 70.7734 26.0234C70.1523 26.5156 69.7129 27.248 69.4551 28.2207C69.1973 29.1816 69.0684 30.3594 69.0684 31.7539V41H63.707V13.6484H69.0684ZM105.227 31.1387C105.227 32.7793 105.004 34.2324 104.559 35.498C104.125 36.7637 103.486 37.8359 102.643 38.7148C101.811 39.582 100.803 40.2383 99.6191 40.6836C98.4473 41.1289 97.123 41.3516 95.6465 41.3516C94.2637 41.3516 92.9922 41.1289 91.832 40.6836C90.6836 40.2383 89.6816 39.582 88.8262 38.7148C87.9824 37.8359 87.3262 36.7637 86.8574 35.498C86.4004 34.2324 86.1719 32.7793 86.1719 31.1387C86.1719 28.959 86.5586 27.1133 87.332 25.6016C88.1055 24.0898 89.207 22.9414 90.6367 22.1562C92.0664 21.3711 93.7715 20.9785 95.752 20.9785C97.5918 20.9785 99.2207 21.3711 100.639 22.1562C102.068 22.9414 103.188 24.0898 103.996 25.6016C104.816 27.1133 105.227 28.959 105.227 31.1387ZM91.6387 31.1387C91.6387 32.4277 91.7793 33.5117 92.0605 34.3906C92.3418 35.2695 92.7812 35.9316 93.3789 36.377C93.9766 36.8223 94.7559 37.0449 95.7168 37.0449C96.666 37.0449 97.4336 36.8223 98.0195 36.377C98.6172 35.9316 99.0508 35.2695 99.3203 34.3906C99.6016 33.5117 99.7422 32.4277 99.7422 31.1387C99.7422 29.8379 99.6016 28.7598 99.3203 27.9043C99.0508 27.0371 98.6172 26.3867 98.0195 25.9531C97.4219 25.5195 96.6426 25.3027 95.6816 25.3027C94.2637 25.3027 93.2324 25.7891 92.5879 26.7617C91.9551 27.7344 91.6387 29.1934 91.6387 31.1387ZM120.59 20.9785C122.805 20.9785 124.592 21.8398 125.951 23.5625C127.322 25.2852 128.008 27.8105 128.008 31.1387C128.008 33.3652 127.686 35.2402 127.041 36.7637C126.396 38.2754 125.506 39.418 124.369 40.1914C123.232 40.9648 121.926 41.3516 120.449 41.3516C119.5 41.3516 118.686 41.2344 118.006 41C117.326 40.7539 116.746 40.4434 116.266 40.0684C115.785 39.6816 115.369 39.2715 115.018 38.8379H114.736C114.83 39.3066 114.9 39.7871 114.947 40.2793C114.994 40.7715 115.018 41.252 115.018 41.7207V49.6484H109.656V21.3477H114.016L114.771 23.8965H115.018C115.369 23.3691 115.797 22.8828 116.301 22.4375C116.805 21.9922 117.408 21.6406 118.111 21.3828C118.826 21.1133 119.652 20.9785 120.59 20.9785ZM118.867 25.2676C117.93 25.2676 117.186 25.4609 116.635 25.8477C116.084 26.2344 115.68 26.8145 115.422 27.5879C115.176 28.3613 115.041 29.3398 115.018 30.5234V31.1035C115.018 32.3691 115.135 33.4414 115.369 34.3203C115.615 35.1992 116.02 35.8672 116.582 36.3242C117.156 36.7812 117.941 37.0098 118.938 37.0098C119.758 37.0098 120.432 36.7812 120.959 36.3242C121.486 35.8672 121.879 35.1992 122.137 34.3203C122.406 33.4297 122.541 32.3457 122.541 31.0684C122.541 29.1465 122.242 27.6992 121.645 26.7266C121.047 25.7539 120.121 25.2676 118.867 25.2676ZM143.371 20.9785C145.586 20.9785 147.373 21.8398 148.732 23.5625C150.104 25.2852 150.789 27.8105 150.789 31.1387C150.789 33.3652 150.467 35.2402 149.822 36.7637C149.178 38.2754 148.287 39.418 147.15 40.1914C146.014 40.9648 144.707 41.3516 143.23 41.3516C142.281 41.3516 141.467 41.2344 140.787 41C140.107 40.7539 139.527 40.4434 139.047 40.0684C138.566 39.6816 138.15 39.2715 137.799 38.8379H137.518C137.611 39.3066 137.682 39.7871 137.729 40.2793C137.775 40.7715 137.799 41.252 137.799 41.7207V49.6484H132.438V21.3477H136.797L137.553 23.8965H137.799C138.15 23.3691 138.578 22.8828 139.082 22.4375C139.586 21.9922 140.189 21.6406 140.893 21.3828C141.607 21.1133 142.434 20.9785 143.371 20.9785ZM141.648 25.2676C140.711 25.2676 139.967 25.4609 139.416 25.8477C138.865 26.2344 138.461 26.8145 138.203 27.5879C137.957 28.3613 137.822 29.3398 137.799 30.5234V31.1035C137.799 32.3691 137.916 33.4414 138.15 34.3203C138.396 35.1992 138.801 35.8672 139.363 36.3242C139.938 36.7812 140.723 37.0098 141.719 37.0098C142.539 37.0098 143.213 36.7812 143.74 36.3242C144.268 35.8672 144.66 35.1992 144.918 34.3203C145.188 33.4297 145.322 32.3457 145.322 31.0684C145.322 29.1465 145.023 27.6992 144.426 26.7266C143.828 25.7539 142.902 25.2676 141.648 25.2676ZM163.322 20.9785C165.139 20.9785 166.703 21.3301 168.016 22.0332C169.328 22.7246 170.342 23.7324 171.057 25.0566C171.771 26.3809 172.129 27.998 172.129 29.9082V32.5098H159.455C159.514 34.0215 159.965 35.2109 160.809 36.0781C161.664 36.9336 162.848 37.3613 164.359 37.3613C165.613 37.3613 166.762 37.2324 167.805 36.9746C168.848 36.7168 169.92 36.3301 171.021 35.8145V39.9629C170.049 40.4434 169.029 40.7949 167.963 41.0176C166.908 41.2402 165.625 41.3516 164.113 41.3516C162.145 41.3516 160.398 40.9883 158.875 40.2617C157.363 39.5352 156.174 38.4277 155.307 36.9395C154.451 35.4512 154.023 33.5762 154.023 31.3145C154.023 29.0176 154.41 27.1074 155.184 25.584C155.969 24.0488 157.059 22.9004 158.453 22.1387C159.848 21.3652 161.471 20.9785 163.322 20.9785ZM163.357 24.793C162.314 24.793 161.447 25.127 160.756 25.7949C160.076 26.4629 159.684 27.5117 159.578 28.9414H167.102C167.09 28.1445 166.943 27.4355 166.662 26.8145C166.393 26.1934 165.982 25.7012 165.432 25.3379C164.893 24.9746 164.201 24.793 163.357 24.793Z" fill="#F3F4F6"/>
<path d="M0 21.8311L8.14776 29.991L8.17563 40.7254H0V21.8311Z" fill="#7AAAA6"/>
<path d="M0 18.8943L8.14776 10.7343L8.17563 0H0V18.8943Z" fill="#7AAAA6"/>
<path d="M34.4904 0.0316162H38.4524V40.7571H32.3303H30.5283V27.5227V9.1953V0.0316162H34.4904Z" fill="#E3AB2A"/>
<path d="M30.5467 8.49447L14.3236 24.7361L10.9515 21.3668L9.95898 20.3751L19.3084 11.0115L30.5932 0.0371094L30.5467 8.49447Z" fill="#E3AB2A"/>
<path d="M20.2668 0L0 20.4045L20.2854 40.7068H28.5497L8.09202 20.4045L28.5125 0H20.2668Z" fill="#E2CC89"/>
</svg>
