<svg width="131" height="127" viewBox="0 0 131 127" fill="none" xmlns="http://www.w3.org/2000/svg">
<g clip-path="url(#clip0_0_1)">
<path fill-rule="evenodd" clip-rule="evenodd" d="M14.4484 13.2126V14.9065H0.896973V16.2616H14.4484V17.6168H0.896973V18.9719H14.4484V20.3271H0.896973V21.6822H14.4484V23.0374H0.896973V24.3925H14.4484V25.7476H0.896973V27.1028H14.7872H15.8035V13.5514H17.1587V27.1028H18.5138V13.5514H19.869V27.1028H21.2241V13.5514H22.5793V27.1028H23.9344V13.5514H25.2895V27.1028H26.6447V13.5514H27.9998V12.1962H14.4484V13.2126ZM0.896973 13.5514H2.25212V-7.34329e-05H0.896973V13.5514ZM3.60726 13.5514H4.9624V-7.34329e-05H3.60726V13.5514ZM6.31754 13.5514H7.67269V-7.34329e-05H6.31754V13.5514ZM9.02783 13.5514H10.383V-7.34329e-05H9.02783V13.5514ZM11.7381 13.5514H13.0933V-7.34329e-05H11.7381V13.5514ZM14.4484 10.8411H27.9998V9.48593H14.4484V10.8411ZM14.4484 8.13078H27.9998V6.77564H14.4484V8.13078ZM14.4484 5.4205H27.9998V4.06536H14.4484V5.4205ZM14.4484 2.71021H27.9998V1.35507H14.4484V2.71021Z" fill="#3B82F6" fill-opacity="0.2"/>
</g>
<g clip-path="url(#clip1_0_1)">
<path fill-rule="evenodd" clip-rule="evenodd" d="M14.4484 46.3155V48.0094H0.896973V49.3645H14.4484V50.7197H0.896973V52.0748H14.4484V53.43H0.896973V54.7851H14.4484V56.1403H0.896973V57.4954H14.4484V58.8505H0.896973V60.2057H14.7872H15.8035V46.6543H17.1587V60.2057H18.5138V46.6543H19.869V60.2057H21.2241V46.6543H22.5793V60.2057H23.9344V46.6543H25.2895V60.2057H26.6447V46.6543H27.9998V45.2991H14.4484V46.3155ZM0.896973 46.6543H2.25212V33.1028H0.896973V46.6543ZM3.60726 46.6543H4.9624V33.1028H3.60726V46.6543ZM6.31754 46.6543H7.67269V33.1028H6.31754V46.6543ZM9.02783 46.6543H10.383V33.1028H9.02783V46.6543ZM11.7381 46.6543H13.0933V33.1028H11.7381V46.6543ZM14.4484 43.944H27.9998V42.5888H14.4484V43.944ZM14.4484 41.2337H27.9998V39.8785H14.4484V41.2337ZM14.4484 38.5234H27.9998V37.1683H14.4484V38.5234ZM14.4484 35.8131H27.9998V34.458H14.4484V35.8131Z" fill="#3B82F6" fill-opacity="0.2"/>
</g>
<g clip-path="url(#clip2_0_1)">
<path fill-rule="evenodd" clip-rule="evenodd" d="M48.5514 46.3155V48.0094H35V49.3645H48.5514V50.7197H35V52.0748H48.5514V53.43H35V54.7851H48.5514V56.1403H35V57.4954H48.5514V58.8505H35V60.2057H48.8902H49.9066V46.6543H51.2617V60.2057H52.6169V46.6543H53.972V60.2057H55.3271V46.6543H56.6823V60.2057H58.0374V46.6543H59.3926V60.2057H60.7477V46.6543H62.1029V45.2991H48.5514V46.3155ZM35 46.6543H36.3551V33.1028H35V46.6543ZM37.7103 46.6543H39.0654V33.1028H37.7103V46.6543ZM40.4206 46.6543H41.7757V33.1028H40.4206V46.6543ZM43.1309 46.6543H44.486V33.1028H43.1309V46.6543ZM45.8411 46.6543H47.1963V33.1028H45.8411V46.6543ZM48.5514 43.944H62.1029V42.5888H48.5514V43.944ZM48.5514 41.2337H62.1029V39.8785H48.5514V41.2337ZM48.5514 38.5234H62.1029V37.1683H48.5514V38.5234ZM48.5514 35.8131H62.1029V34.458H48.5514V35.8131Z" fill="#3B82F6" fill-opacity="0.2"/>
</g>
<g clip-path="url(#clip3_0_1)">
<path fill-rule="evenodd" clip-rule="evenodd" d="M48.5514 79.4184V81.1123H35V82.4675H48.5514V83.8226H35V85.1777H48.5514V86.5329H35V87.888H48.5514V89.2432H35V90.5983H48.5514V91.9535H35V93.3086H48.8902H49.9066V79.7572H51.2617V93.3086H52.6169V79.7572H53.972V93.3086H55.3271V79.7572H56.6823V93.3086H58.0374V79.7572H59.3926V93.3086H60.7477V79.7572H62.1029V78.402H48.5514V79.4184ZM35 79.7572H36.3551V66.2057H35V79.7572ZM37.7103 79.7572H39.0654V66.2057H37.7103V79.7572ZM40.4206 79.7572H41.7757V66.2057H40.4206V79.7572ZM43.1309 79.7572H44.486V66.2057H43.1309V79.7572ZM45.8411 79.7572H47.1963V66.2057H45.8411V79.7572ZM48.5514 77.0469H62.1029V75.6917H48.5514V77.0469ZM48.5514 74.3366H62.1029V72.9815H48.5514V74.3366ZM48.5514 71.6263H62.1029V70.2712H48.5514V71.6263ZM48.5514 68.916H62.1029V67.5609H48.5514V68.916Z" fill="#3B82F6" fill-opacity="0.2"/>
</g>
<g clip-path="url(#clip4_0_1)">
<path fill-rule="evenodd" clip-rule="evenodd" d="M82.6545 79.4184V81.1123H69.103V82.4675H82.6545V83.8226H69.103V85.1777H82.6545V86.5329H69.103V87.888H82.6545V89.2432H69.103V90.5983H82.6545V91.9535H69.103V93.3086H82.9932H84.0096V79.7572H85.3647V93.3086H86.7199V79.7572H88.075V93.3086H89.4302V79.7572H90.7853V93.3086H92.1405V79.7572H93.4956V93.3086H94.8507V79.7572H96.2059V78.402H82.6545V79.4184ZM69.103 79.7572H70.4582V66.2057H69.103V79.7572ZM71.8133 79.7572H73.1685V66.2057H71.8133V79.7572ZM74.5236 79.7572H75.8787V66.2057H74.5236V79.7572ZM77.2339 79.7572H78.589V66.2057H77.2339V79.7572ZM79.9442 79.7572H81.2993V66.2057H79.9442V79.7572ZM82.6545 77.0469H96.2059V75.6917H82.6545V77.0469ZM82.6545 74.3366H96.2059V72.9815H82.6545V74.3366ZM82.6545 71.6263H96.2059V70.2712H82.6545V71.6263ZM82.6545 68.916H96.2059V67.5609H82.6545V68.916Z" fill="#3B82F6" fill-opacity="0.2"/>
</g>
<g clip-path="url(#clip5_0_1)">
<path fill-rule="evenodd" clip-rule="evenodd" d="M14.4484 79.4184V81.1123H0.896973V82.4675H14.4484V83.8226H0.896973V85.1777H14.4484V86.5329H0.896973V87.888H14.4484V89.2432H0.896973V90.5983H14.4484V91.9535H0.896973V93.3086H14.7872H15.8035V79.7572H17.1587V93.3086H18.5138V79.7572H19.869V93.3086H21.2241V79.7572H22.5793V93.3086H23.9344V79.7572H25.2895V93.3086H26.6447V79.7572H27.9998V78.402H14.4484V79.4184ZM0.896973 79.7572H2.25212V66.2057H0.896973V79.7572ZM3.60726 79.7572H4.9624V66.2057H3.60726V79.7572ZM6.31754 79.7572H7.67269V66.2057H6.31754V79.7572ZM9.02783 79.7572H10.383V66.2057H9.02783V79.7572ZM11.7381 79.7572H13.0933V66.2057H11.7381V79.7572ZM14.4484 77.0469H27.9998V75.6917H14.4484V77.0469ZM14.4484 74.3366H27.9998V72.9815H14.4484V74.3366ZM14.4484 71.6263H27.9998V70.2712H14.4484V71.6263ZM14.4484 68.916H27.9998V67.5609H14.4484V68.916Z" fill="#3B82F6" fill-opacity="0.2"/>
</g>
<path fill-rule="evenodd" clip-rule="evenodd" d="M48.5514 112.521V114.215H35V115.57H48.5514V116.925H35V118.281H48.5514V119.636H35V120.991H48.5514V122.346H35V123.701H48.5514V125.056H35V126.411H48.8902H49.9066V112.86H51.2617V126.411H52.6169V112.86H53.972V126.411H55.3271V112.86H56.6823V126.411H58.0374V112.86H59.3926V126.411H60.7477V112.86H62.1029V111.505H48.5514V112.521ZM35 112.86H36.3551V99.3085H35V112.86ZM37.7103 112.86H39.0654V99.3085H37.7103V112.86ZM40.4206 112.86H41.7757V99.3085H40.4206V112.86ZM43.1309 112.86H44.486V99.3085H43.1309V112.86ZM45.8411 112.86H47.1963V99.3085H45.8411V112.86ZM48.5514 110.15H62.1029V108.795H48.5514V110.15ZM48.5514 107.439H62.1029V106.084H48.5514V107.439ZM48.5514 104.729H62.1029V103.374H48.5514V104.729ZM48.5514 102.019H62.1029V100.664H48.5514V102.019Z" fill="#3B82F6" fill-opacity="0.2"/>
<path fill-rule="evenodd" clip-rule="evenodd" d="M82.6545 112.521V114.215H69.103V115.57H82.6545V116.925H69.103V118.281H82.6545V119.636H69.103V120.991H82.6545V122.346H69.103V123.701H82.6545V125.056H69.103V126.411H82.9932H84.0096V112.86H85.3647V126.411H86.7199V112.86H88.075V126.411H89.4302V112.86H90.7853V126.411H92.1405V112.86H93.4956V126.411H94.8507V112.86H96.2059V111.505H82.6545V112.521ZM69.103 112.86H70.4582V99.3085H69.103V112.86ZM71.8133 112.86H73.1685V99.3085H71.8133V112.86ZM74.5236 112.86H75.8787V99.3085H74.5236V112.86ZM77.2339 112.86H78.589V99.3085H77.2339V112.86ZM79.9442 112.86H81.2993V99.3085H79.9442V112.86ZM82.6545 110.15H96.2059V108.795H82.6545V110.15ZM82.6545 107.439H96.2059V106.084H82.6545V107.439ZM82.6545 104.729H96.2059V103.374H82.6545V104.729ZM82.6545 102.019H96.2059V100.664H82.6545V102.019Z" fill="#3B82F6" fill-opacity="0.2"/>
<path fill-rule="evenodd" clip-rule="evenodd" d="M116.757 112.521V114.215H103.206V115.57H116.757V116.925H103.206V118.281H116.757V119.636H103.206V120.991H116.757V122.346H103.206V123.701H116.757V125.056H103.206V126.411H117.096H118.113V112.86H119.468V126.411H120.823V112.86H122.178V126.411H123.533V112.86H124.888V126.411H126.243V112.86H127.599V126.411H128.954V112.86H130.309V111.505H116.757V112.521ZM103.206 112.86H104.561V99.3085H103.206V112.86ZM105.916 112.86H107.271V99.3085H105.916V112.86ZM108.627 112.86H109.982V99.3085H108.627V112.86ZM111.337 112.86H112.692V99.3085H111.337V112.86ZM114.047 112.86H115.402V99.3085H114.047V112.86ZM116.757 110.15H130.309V108.795H116.757V110.15ZM116.757 107.439H130.309V106.084H116.757V107.439ZM116.757 104.729H130.309V103.374H116.757V104.729ZM116.757 102.019H130.309V100.664H116.757V102.019Z" fill="#3B82F6" fill-opacity="0.2"/>
<path fill-rule="evenodd" clip-rule="evenodd" d="M14.4484 112.521V114.215H0.896973V115.57H14.4484V116.925H0.896973V118.281H14.4484V119.636H0.896973V120.991H14.4484V122.346H0.896973V123.701H14.4484V125.056H0.896973V126.411H14.7872H15.8035V112.86H17.1587V126.411H18.5138V112.86H19.869V126.411H21.2241V112.86H22.5793V126.411H23.9344V112.86H25.2895V126.411H26.6447V112.86H27.9998V111.505H14.4484V112.521ZM0.896973 112.86H2.25212V99.3085H0.896973V112.86ZM3.60726 112.86H4.9624V99.3085H3.60726V112.86ZM6.31754 112.86H7.67269V99.3085H6.31754V112.86ZM9.02783 112.86H10.383V99.3085H9.02783V112.86ZM11.7381 112.86H13.0933V99.3085H11.7381V112.86ZM14.4484 110.15H27.9998V108.795H14.4484V110.15ZM14.4484 107.439H27.9998V106.084H14.4484V107.439ZM14.4484 104.729H27.9998V103.374H14.4484V104.729ZM14.4484 102.019H27.9998V100.664H14.4484V102.019Z" fill="#3B82F6" fill-opacity="0.2"/>
<defs>
<clipPath id="clip0_0_1">
<rect width="27.1029" height="27.1029" fill="white" transform="matrix(1 0 0 -1 0.896973 27.1028)"/>
</clipPath>
<clipPath id="clip1_0_1">
<rect width="27.1029" height="27.1029" fill="white" transform="matrix(1 0 0 -1 0.896973 60.2057)"/>
</clipPath>
<clipPath id="clip2_0_1">
<rect width="27.1029" height="27.1029" fill="white" transform="matrix(1 0 0 -1 35 60.2057)"/>
</clipPath>
<clipPath id="clip3_0_1">
<rect width="27.1029" height="27.1029" fill="white" transform="matrix(1 0 0 -1 35 93.3086)"/>
</clipPath>
<clipPath id="clip4_0_1">
<rect width="27.1029" height="27.1029" fill="white" transform="matrix(1 0 0 -1 69.103 93.3086)"/>
</clipPath>
<clipPath id="clip5_0_1">
<rect width="27.1029" height="27.1029" fill="white" transform="matrix(1 0 0 -1 0.896973 93.3086)"/>
</clipPath>
</defs>
</svg>
